1 115 140.0 0 380.0 0 0 1 0 1 0 -1 0 0 3003.DAT
0 STEP
1 115 140.0 0 240.0 0 0 1 0 1 0 -1 0 0 3003.DAT
0 STEP
1 115 20.0 0 380.0 0 0 1 0 1 0 -1 0 0 3003.DAT
0 STEP
1 115 20.0 0 240.0 0 0 1 0 1 0 -1 0 0 3003.DAT
0 STEP
1 115 140.0 -24 380.0 0 0 1 0 1 0 -1 0 0 3003.DAT
0 STEP
1 115 20.0 -24 380.0 0 0 1 0 1 0 -1 0 0 3003.DAT
0 STEP
1 115 20.0 -24 240.0 0 0 1 0 1 0 -1 0 0 3003.DAT
0 STEP
1 115 140.0 -48 370.0 -1 0 0 0 1 0 0 0 -1 3004.DAT
0 STEP
1 115 140.0 -48 250.0 -1 0 0 0 1 0 0 0 -1 3004.DAT
0 STEP
1 115 20.0 -48 370.0 -1 0 0 0 1 0 0 0 -1 3004.DAT
0 STEP
1 115 20.0 -48 250.0 -1 0 0 0 1 0 0 0 -1 3004.DAT
0 STEP
1 115 140.0 -72 360.0 0 0 1 0 1 0 -1 0 0 3003.DAT
0 STEP
1 115 140.0 -72 250.0 -1 0 0 0 1 0 0 0 -1 3004.DAT
0 STEP
1 115 20.0 -72 360.0 0 0 1 0 1 0 -1 0 0 3003.DAT
0 STEP
1 115 20.0 -72 250.0 -1 0 0 0 1 0 0 0 -1 3004.DAT
0 STEP
1 115 140.0 -96 360.0 0 0 1 0 1 0 -1 0 0 3003.DAT
0 STEP
1 115 140.0 -96 260.0 0 0 1 0 1 0 -1 0 0 3003.DAT
0 STEP
1 115 20.0 -96 360.0 0 0 1 0 1 0 -1 0 0 3003.DAT
0 STEP
1 115 20.0 -96 260.0 0 0 1 0 1 0 -1 0 0 3003.DAT
0 STEP
1 115 140.0 -120 350.0 -1 0 0 0 1 0 0 0 -1 3004.DAT
0 STEP
1 115 140.0 -120 260.0 0 0 1 0 1 0 -1 0 0 3003.DAT
0 STEP
1 115 20.0 -120 350.0 -1 0 0 0 1 0 0 0 -1 3004.DAT
0 STEP
1 115 20.0 -120 260.0 0 0 1 0 1 0 -1 0 0 3003.DAT
0 STEP
1 115 140.0 -144 340.0 0 0 1 0 1 0 -1 0 0 3003.DAT
0 STEP
1 115 140.0 -144 280.0 0 0 1 0 1 0 -1 0 0 3003.DAT
0 STEP
1 115 20.0 -144 340.0 0 0 1 0 1 0 -1 0 0 3003.DAT
0 STEP
1 115 20.0 -144 280.0 0 0 1 0 1 0 -1 0 0 3003.DAT
0 STEP
1 115 140.0 -168 330.0 -1 0 0 0 1 0 0 0 -1 3004.DAT
0 STEP
1 115 140.0 -168 280.0 0 0 1 0 1 0 -1 0 0 3003.DAT
0 STEP
1 115 20.0 -168 330.0 -1 0 0 0 1 0 0 0 -1 3004.DAT
0 STEP
1 115 20.0 -168 280.0 0 0 1 0 1 0 -1 0 0 3003.DAT
0 STEP
1 115 140.0 -192 320.0 0 0 1 0 1 0 -1 0 0 3003.DAT
0 STEP
1 115 140.0 -192 290.0 -1 0 0 0 1 0 0 0 -1 3004.DAT
0 STEP
1 115 20.0 -192 320.0 0 0 1 0 1 0 -1 0 0 3003.DAT
0 STEP
1 115 20.0 -192 290.0 -1 0 0 0 1 0 0 0 -1 3004.DAT
0 STEP
1 115 150.0 -216 320.0 0 0 1 0 1 0 -1 0 0 3004.DAT
0 STEP
1 115 150.0 -216 290.0 0 0 1 0 1 0 -1 0 0 3005.DAT
0 STEP
1 115 120.0 -216 300.0 0 0 1 0 1 0 -1 0 0 2456.DAT
0 STEP
1 115 80.0 -216 300.0 0 0 1 0 1 0 -1 0 0 2456.DAT
0 STEP
1 115 80.0 -216 370.0 -1 0 0 0 1 0 0 0 -1 3010.DAT
0 STEP
1 115 40.0 -216 300.0 0 0 1 0 1 0 -1 0 0 2456.DAT
0 STEP
1 115 10.0 -216 320.0 0 0 1 0 1 0 -1 0 0 3004.DAT
0 STEP
1 115 10.0 -216 290.0 0 0 1 0 1 0 -1 0 0 3005.DAT
0 STEP
1 115 150.0 -240 330.0 0 0 1 0 1 0 -1 0 0 3005.DAT
0 STEP
1 115 150.0 -240 300.0 0 0 1 0 1 0 -1 0 0 3004.DAT
0 STEP
1 115 120.0 -240 350.0 -1 0 0 0 1 0 0 0 -1 3004.DAT
0 STEP
1 115 60.0 -240 350.0 -1 0 0 0 1 0 0 0 -1 3004.DAT
0 STEP
1 115 80.0 -240 320.0 -1 0 0 0 1 0 0 0 -1 2456.DAT
0 STEP
1 115 80.0 -240 290.0 -1 0 0 0 1 0 0 0 -1 3009.DAT
0 STEP
1 115 10.0 -240 330.0 0 0 1 0 1 0 -1 0 0 3005.DAT
0 STEP
1 115 10.0 -240 300.0 0 0 1 0 1 0 -1 0 0 3004.DAT
0 STEP
1 115 140.0 -264 320.0 0 0 1 0 1 0 -1 0 0 3003.DAT
0 STEP
1 115 140.0 -264 290.0 -1 0 0 0 1 0 0 0 -1 3004.DAT
0 STEP
1 115 80.0 -264 360.0 -1 0 0 0 1 0 0 0 -1 2456.DAT
0 STEP
1 115 20.0 -264 320.0 0 0 1 0 1 0 -1 0 0 3003.DAT
0 STEP
1 115 20.0 -264 290.0 -1 0 0 0 1 0 0 0 -1 3004.DAT
0 STEP
1 115 150.0 -288 330.0 0 0 1 0 1 0 -1 0 0 3005.DAT
0 STEP
1 115 150.0 -288 300.0 0 0 1 0 1 0 -1 0 0 3004.DAT
0 STEP
