1 115 140.0 0 350.0 -1 0 0 0 1 0 0 0 -1 3004.DAT
0 STEP
1 115 140.0 0 320.0 0 0 1 0 1 0 -1 0 0 3003.DAT
0 STEP
1 115 140.0 0 150.0 -1 0 0 0 1 0 0 0 -1 3004.DAT
0 STEP
1 115 140.0 0 120.0 0 0 1 0 1 0 -1 0 0 3003.DAT
0 STEP
1 115 20.0 0 350.0 -1 0 0 0 1 0 0 0 -1 3004.DAT
0 STEP
1 115 20.0 0 150.0 -1 0 0 0 1 0 0 0 -1 3004.DAT
0 STEP
1 115 20.0 0 120.0 0 0 1 0 1 0 -1 0 0 3003.DAT
0 STEP
1 115 150.0 -24 390.0 0 0 1 0 1 0 -1 0 0 3005.DAT
0 STEP
1 115 150.0 -24 300.0 0 0 1 0 1 0 -1 0 0 3008.DAT
0 STEP
1 115 150.0 -24 140.0 0 0 1 0 1 0 -1 0 0 3008.DAT
0 STEP
1 115 130.0 -24 70.0 0 0 1 0 1 0 -1 0 0 3005.DAT
0 STEP
1 115 80.0 -24 60.0 -1 0 0 0 1 0 0 0 -1 3001.DAT
0 STEP
1 115 80.0 -24 380.0 -1 0 0 0 1 0 0 0 -1 2456.DAT
0 STEP
1 115 80.0 -24 340.0 -1 0 0 0 1 0 0 0 -1 2456.DAT
0 STEP
1 115 80.0 -24 300.0 -1 0 0 0 1 0 0 0 -1 2456.DAT
0 STEP
1 115 80.0 -24 260.0 -1 0 0 0 1 0 0 0 -1 2456.DAT
0 STEP
1 115 80.0 -24 220.0 -1 0 0 0 1 0 0 0 -1 2456.DAT
0 STEP
1 115 80.0 -24 180.0 -1 0 0 0 1 0 0 0 -1 2456.DAT
0 STEP
1 115 80.0 -24 140.0 -1 0 0 0 1 0 0 0 -1 2456.DAT
0 STEP
1 115 80.0 -24 100.0 -1 0 0 0 1 0 0 0 -1 2456.DAT
0 STEP
1 115 30.0 -24 70.0 0 0 1 0 1 0 -1 0 0 3005.DAT
0 STEP
1 115 10.0 -24 320.0 0 0 1 0 1 0 -1 0 0 3010.DAT
0 STEP
1 115 10.0 -24 140.0 0 0 1 0 1 0 -1 0 0 3004.DAT
0 STEP
1 115 10.0 -24 110.0 0 0 1 0 1 0 -1 0 0 3005.DAT
0 STEP
1 115 150.0 -48 170.0 0 0 1 0 1 0 -1 0 0 3005.DAT
0 STEP
1 115 140.0 -48 320.0 0 0 1 0 1 0 -1 0 0 2456.DAT
0 STEP
1 115 140.0 -48 250.0 -1 0 0 0 1 0 0 0 -1 3004.DAT
0 STEP
1 115 140.0 -48 200.0 0 0 1 0 1 0 -1 0 0 3003.DAT
0 STEP
1 115 140.0 -48 100.0 0 0 1 0 1 0 -1 0 0 2456.DAT
0 STEP
1 115 110.0 -48 370.0 0 0 1 0 1 0 -1 0 0 3005.DAT
0 STEP
1 115 110.0 -48 320.0 0 0 1 0 1 0 -1 0 0 3004.DAT
0 STEP
1 115 110.0 -48 200.0 0 0 1 0 1 0 -1 0 0 3004.DAT
0 STEP
1 115 110.0 -48 170.0 0 0 1 0 1 0 -1 0 0 3005.DAT
0 STEP
1 115 110.0 -48 50.0 0 0 1 0 1 0 -1 0 0 3005.DAT
0 STEP
1 115 80.0 -48 370.0 -1 0 0 0 1 0 0 0 -1 3004.DAT
0 STEP
1 115 80.0 -48 320.0 0 0 1 0 1 0 -1 0 0 3003.DAT
0 STEP
1 115 80.0 -48 200.0 0 0 1 0 1 0 -1 0 0 2456.DAT
0 STEP
1 115 80.0 -48 50.0 -1 0 0 0 1 0 0 0 -1 3004.DAT
0 STEP
1 115 100.0 -48 390.0 -1 0 0 0 1 0 0 0 -1 3009.DAT
0 STEP
1 115 50.0 -48 360.0 0 0 1 0 1 0 -1 0 0 3004.DAT
0 STEP
1 115 50.0 -48 320.0 0 0 1 0 1 0 -1 0 0 3004.DAT
0 STEP
1 115 80.0 -48 270.0 -1 0 0 0 1 0 0 0 -1 3010.DAT
0 STEP
1 115 50.0 -48 200.0 0 0 1 0 1 0 -1 0 0 3004.DAT
0 STEP
1 115 50.0 -48 170.0 0 0 1 0 1 0 -1 0 0 3005.DAT
0 STEP
1 115 50.0 -48 50.0 0 0 1 0 1 0 -1 0 0 3005.DAT
0 STEP
1 115 30.0 -48 390.0 0 0 1 0 1 0 -1 0 0 3005.DAT
0 STEP
1 115 40.0 -48 120.0 0 0 1 0 1 0 -1 0 0 2456.DAT
0 STEP
1 115 20.0 -48 320.0 0 0 1 0 1 0 -1 0 0 2456.DAT
0 STEP
1 115 80.0 -48 250.0 -1 0 0 0 1 0 0 0 -1 3008.DAT
0 STEP
1 115 80.0 -48 230.0 -1 0 0 0 1 0 0 0 -1 3008.DAT
0 STEP
1 115 20.0 -48 200.0 0 0 1 0 1 0 -1 0 0 3003.DAT
0 STEP
1 115 10.0 -48 120.0 0 0 1 0 1 0 -1 0 0 3004.DAT
0 STEP
1 115 150.0 -72 370.0 0 0 1 0 1 0 -1 0 0 3005.DAT
0 STEP
1 115 150.0 -72 340.0 0 0 1 0 1 0 -1 0 0 3004.DAT
0 STEP
1 115 150.0 -72 260.0 0 0 1 0 1 0 -1 0 0 3004.DAT
0 STEP
1 115 150.0 -72 90.0 0 0 1 0 1 0 -1 0 0 3005.DAT
0 STEP
1 115 130.0 -72 390.0 0 0 1 0 1 0 -1 0 0 3005.DAT
0 STEP
1 115 140.0 -72 180.0 0 0 1 0 1 0 -1 0 0 3001.DAT
0 STEP
