1 115 280.0 0 360.0 0 0 1 0 1 0 -1 0 0 3003.DAT
0 STEP
1 115 280.0 0 100.0 0 0 1 0 1 0 -1 0 0 3003.DAT
0 STEP
1 115 20.0 0 360.0 0 0 1 0 1 0 -1 0 0 3003.DAT
0 STEP
1 115 20.0 0 100.0 0 0 1 0 1 0 -1 0 0 3003.DAT
0 STEP
1 115 280.0 -24 370.0 -1 0 0 0 1 0 0 0 -1 3004.DAT
0 STEP
1 115 280.0 -24 340.0 0 0 1 0 1 0 -1 0 0 3003.DAT
0 STEP
1 115 280.0 -24 100.0 0 0 1 0 1 0 -1 0 0 3003.DAT
0 STEP
1 115 20.0 -24 370.0 -1 0 0 0 1 0 0 0 -1 3004.DAT
0 STEP
1 115 20.0 -24 320.0 0 0 1 0 1 0 -1 0 0 3001.DAT
0 STEP
1 115 20.0 -24 120.0 0 0 1 0 1 0 -1 0 0 3001.DAT
0 STEP
1 115 280.0 -48 350.0 -1 0 0 0 1 0 0 0 -1 3004.DAT
0 STEP
1 115 280.0 -48 300.0 0 0 1 0 1 0 -1 0 0 3001.DAT
0 STEP
1 115 280.0 -48 140.0 0 0 1 0 1 0 -1 0 0 3001.DAT
0 STEP
1 115 280.0 -48 90.0 -1 0 0 0 1 0 0 0 -1 3004.DAT
0 STEP
1 115 20.0 -48 350.0 -1 0 0 0 1 0 0 0 -1 3004.DAT
0 STEP
1 115 20.0 -48 300.0 0 0 1 0 1 0 -1 0 0 3001.DAT
0 STEP
1 115 20.0 -48 140.0 0 0 1 0 1 0 -1 0 0 3001.DAT
0 STEP
1 115 20.0 -48 90.0 -1 0 0 0 1 0 0 0 -1 3004.DAT
0 STEP
1 115 280.0 -72 300.0 0 0 1 0 1 0 -1 0 0 3001.DAT
0 STEP
1 115 280.0 -72 180.0 0 0 1 0 1 0 -1 0 0 3001.DAT
0 STEP
1 115 280.0 -72 130.0 -1 0 0 0 1 0 0 0 -1 3004.DAT
0 STEP
1 115 20.0 -72 300.0 0 0 1 0 1 0 -1 0 0 3001.DAT
0 STEP
1 115 20.0 -72 180.0 0 0 1 0 1 0 -1 0 0 3001.DAT
0 STEP
1 115 20.0 -72 130.0 -1 0 0 0 1 0 0 0 -1 3004.DAT
0 STEP
