1 115 160.0 0 380.0 0 0 1 0 1 0 -1 0 0 3003.DAT
0 STEP
1 115 160.0 0 240.0 0 0 1 0 1 0 -1 0 0 3003.DAT
0 STEP
1 115 20.0 0 380.0 0 0 1 0 1 0 -1 0 0 3003.DAT
0 STEP
1 115 20.0 0 240.0 0 0 1 0 1 0 -1 0 0 3003.DAT
0 STEP
1 115 160.0 -24 380.0 0 0 1 0 1 0 -1 0 0 3003.DAT
0 STEP
1 115 160.0 -24 240.0 0 0 1 0 1 0 -1 0 0 3003.DAT
0 STEP
1 115 40.0 -24 390.0 -1 0 0 0 1 0 0 0 -1 3004.DAT
0 STEP
1 115 40.0 -24 230.0 -1 0 0 0 1 0 0 0 -1 3004.DAT
0 STEP
1 115 10.0 -24 380.0 0 0 1 0 1 0 -1 0 0 3004.DAT
0 STEP
1 115 10.0 -24 240.0 0 0 1 0 1 0 -1 0 0 3004.DAT
0 STEP
1 115 160.0 -48 390.0 -1 0 0 0 1 0 0 0 -1 3004.DAT
0 STEP
1 115 160.0 -48 230.0 -1 0 0 0 1 0 0 0 -1 3004.DAT
0 STEP
1 115 20.0 -48 390.0 -1 0 0 0 1 0 0 0 -1 3004.DAT
0 STEP
1 115 20.0 -48 230.0 -1 0 0 0 1 0 0 0 -1 3004.DAT
0 STEP
1 115 160.0 -72 320.0 0 0 1 0 1 0 -1 0 0 3001.DAT
0 STEP
1 115 20.0 -72 320.0 0 0 1 0 1 0 -1 0 0 3001.DAT
0 STEP
1 115 160.0 -96 320.0 0 0 1 0 1 0 -1 0 0 3001.DAT
0 STEP
1 115 20.0 -96 320.0 0 0 1 0 1 0 -1 0 0 3001.DAT
0 STEP
1 115 160.0 -120 320.0 0 0 1 0 1 0 -1 0 0 3001.DAT
0 STEP
1 115 20.0 -120 320.0 0 0 1 0 1 0 -1 0 0 3001.DAT
0 STEP
1 115 160.0 -144 320.0 0 0 1 0 1 0 -1 0 0 3001.DAT
0 STEP
1 115 20.0 -144 320.0 0 0 1 0 1 0 -1 0 0 3001.DAT
0 STEP
1 115 160.0 -168 320.0 0 0 1 0 1 0 -1 0 0 3001.DAT
0 STEP
1 115 20.0 -168 320.0 0 0 1 0 1 0 -1 0 0 3001.DAT
0 STEP
