1 115 220.0 0 380.0 0 0 1 0 1 0 -1 0 0 3003.DAT
0 STEP
1 115 220.0 0 180.0 0 0 1 0 1 0 -1 0 0 3003.DAT
0 STEP
1 115 20.0 0 380.0 0 0 1 0 1 0 -1 0 0 3003.DAT
0 STEP
1 115 20.0 0 180.0 0 0 1 0 1 0 -1 0 0 3003.DAT
0 STEP
1 115 220.0 -24 380.0 0 0 1 0 1 0 -1 0 0 3003.DAT
0 STEP
1 115 220.0 -24 180.0 0 0 1 0 1 0 -1 0 0 3003.DAT
0 STEP
1 115 20.0 -24 390.0 -1 0 0 0 1 0 0 0 -1 3004.DAT
0 STEP
1 115 20.0 -24 340.0 0 0 1 0 1 0 -1 0 0 3001.DAT
0 STEP
1 115 20.0 -24 290.0 -1 0 0 0 1 0 0 0 -1 3004.DAT
0 STEP
1 115 20.0 -24 240.0 0 0 1 0 1 0 -1 0 0 3001.DAT
0 STEP
1 115 20.0 -24 170.0 -1 0 0 0 1 0 0 0 -1 3004.DAT
0 STEP
1 115 220.0 -48 390.0 -1 0 0 0 1 0 0 0 -1 3004.DAT
0 STEP
1 115 220.0 -48 170.0 -1 0 0 0 1 0 0 0 -1 3004.DAT
0 STEP
1 115 20.0 -48 390.0 -1 0 0 0 1 0 0 0 -1 3004.DAT
0 STEP
1 115 20.0 -48 170.0 -1 0 0 0 1 0 0 0 -1 3004.DAT
0 STEP
1 115 220.0 -72 390.0 -1 0 0 0 1 0 0 0 -1 3004.DAT
0 STEP
1 115 220.0 -72 200.0 0 0 1 0 1 0 -1 0 0 3001.DAT
0 STEP
1 115 20.0 -72 200.0 0 0 1 0 1 0 -1 0 0 3001.DAT
0 STEP
1 115 220.0 -96 360.0 0 0 1 0 1 0 -1 0 0 3001.DAT
0 STEP
1 115 220.0 -96 200.0 0 0 1 0 1 0 -1 0 0 3001.DAT
0 STEP
1 115 20.0 -96 360.0 0 0 1 0 1 0 -1 0 0 3001.DAT
0 STEP
1 115 20.0 -96 200.0 0 0 1 0 1 0 -1 0 0 3001.DAT
0 STEP
1 115 220.0 -120 360.0 0 0 1 0 1 0 -1 0 0 3001.DAT
0 STEP
1 115 220.0 -120 200.0 0 0 1 0 1 0 -1 0 0 3001.DAT
0 STEP
