1 115 250.0 0 380.0 0 0 1 0 1 0 -1 0 0 3004.DAT
0 STEP
1 115 250.0 0 140.0 0 0 1 0 1 0 -1 0 0 3004.DAT
0 STEP
1 115 20.0 0 380.0 0 0 1 0 1 0 -1 0 0 3003.DAT
0 STEP
1 115 20.0 0 140.0 0 0 1 0 1 0 -1 0 0 3003.DAT
0 STEP
1 115 250.0 -24 380.0 0 0 1 0 1 0 -1 0 0 3004.DAT
0 STEP
1 115 250.0 -24 140.0 0 0 1 0 1 0 -1 0 0 3004.DAT
0 STEP
1 115 20.0 -24 380.0 0 0 1 0 1 0 -1 0 0 3003.DAT
0 STEP
1 115 20.0 -24 140.0 0 0 1 0 1 0 -1 0 0 3003.DAT
0 STEP
1 115 250.0 -48 380.0 0 0 1 0 1 0 -1 0 0 3004.DAT
0 STEP
1 115 250.0 -48 140.0 0 0 1 0 1 0 -1 0 0 3004.DAT
0 STEP
1 115 20.0 -48 380.0 0 0 1 0 1 0 -1 0 0 3003.DAT
0 STEP
1 115 20.0 -48 140.0 0 0 1 0 1 0 -1 0 0 3003.DAT
0 STEP
1 115 250.0 -72 380.0 0 0 1 0 1 0 -1 0 0 3004.DAT
0 STEP
1 115 250.0 -72 140.0 0 0 1 0 1 0 -1 0 0 3004.DAT
0 STEP
1 115 240.0 -72 320.0 0 0 1 0 1 0 -1 0 0 3001.DAT
0 STEP
1 115 240.0 -72 220.0 0 0 1 0 1 0 -1 0 0 3001.DAT
0 STEP
1 115 180.0 -72 340.0 -1 0 0 0 1 0 0 0 -1 3001.DAT
0 STEP
1 115 180.0 -72 300.0 -1 0 0 0 1 0 0 0 -1 3001.DAT
0 STEP
1 115 180.0 -72 240.0 -1 0 0 0 1 0 0 0 -1 3001.DAT
0 STEP
1 115 180.0 -72 200.0 -1 0 0 0 1 0 0 0 -1 3001.DAT
0 STEP
1 115 120.0 -72 220.0 0 0 1 0 1 0 -1 0 0 3001.DAT
0 STEP
1 115 80.0 -72 220.0 0 0 1 0 1 0 -1 0 0 3001.DAT
0 STEP
1 115 40.0 -72 220.0 0 0 1 0 1 0 -1 0 0 3001.DAT
0 STEP
1 115 20.0 -72 360.0 0 0 1 0 1 0 -1 0 0 3001.DAT
0 STEP
