1 115 170.0 0 360.0 0 0 1 0 1 0 -1 0 0 3004.DAT
0 STEP
1 115 170.0 0 180.0 0 0 1 0 1 0 -1 0 0 3004.DAT
0 STEP
1 115 30.0 0 360.0 0 0 1 0 1 0 -1 0 0 3004.DAT
0 STEP
1 115 30.0 0 180.0 0 0 1 0 1 0 -1 0 0 3004.DAT
0 STEP
1 115 170.0 -24 360.0 0 0 1 0 1 0 -1 0 0 3004.DAT
0 STEP
1 115 170.0 -24 180.0 0 0 1 0 1 0 -1 0 0 3004.DAT
0 STEP
1 115 30.0 -24 360.0 0 0 1 0 1 0 -1 0 0 3004.DAT
0 STEP
1 115 30.0 -24 180.0 0 0 1 0 1 0 -1 0 0 3004.DAT
0 STEP
1 115 160.0 -48 340.0 0 0 1 0 1 0 -1 0 0 3003.DAT
0 STEP
1 115 160.0 -48 180.0 0 0 1 0 1 0 -1 0 0 3003.DAT
0 STEP
1 115 20.0 -48 340.0 0 0 1 0 1 0 -1 0 0 3003.DAT
0 STEP
1 115 20.0 -48 180.0 0 0 1 0 1 0 -1 0 0 3003.DAT
0 STEP
1 115 160.0 -72 340.0 0 0 1 0 1 0 -1 0 0 3003.DAT
0 STEP
1 115 160.0 -72 180.0 0 0 1 0 1 0 -1 0 0 3003.DAT
0 STEP
1 115 20.0 -72 320.0 0 0 1 0 1 0 -1 0 0 3001.DAT
0 STEP
1 115 20.0 -72 200.0 0 0 1 0 1 0 -1 0 0 3001.DAT
0 STEP
1 115 160.0 -96 320.0 0 0 1 0 1 0 -1 0 0 3001.DAT
0 STEP
1 115 160.0 -96 220.0 0 0 1 0 1 0 -1 0 0 3001.DAT
0 STEP
1 115 20.0 -96 320.0 0 0 1 0 1 0 -1 0 0 3001.DAT
0 STEP
1 115 20.0 -96 220.0 0 0 1 0 1 0 -1 0 0 3001.DAT
0 STEP
1 115 160.0 -120 320.0 0 0 1 0 1 0 -1 0 0 3001.DAT
0 STEP
1 115 160.0 -120 240.0 0 0 1 0 1 0 -1 0 0 3001.DAT
0 STEP
1 115 20.0 -120 320.0 0 0 1 0 1 0 -1 0 0 3001.DAT
0 STEP
1 115 20.0 -120 240.0 0 0 1 0 1 0 -1 0 0 3001.DAT
0 STEP
