1 115 240.0 0 360.0 0 0 1 0 1 0 -1 0 0 3003.DAT
0 STEP
1 115 240.0 0 160.0 0 0 1 0 1 0 -1 0 0 3003.DAT
0 STEP
1 115 30.0 0 360.0 0 0 1 0 1 0 -1 0 0 3004.DAT
0 STEP
1 115 30.0 0 160.0 0 0 1 0 1 0 -1 0 0 3004.DAT
0 STEP
1 115 240.0 -24 360.0 0 0 1 0 1 0 -1 0 0 3003.DAT
0 STEP
1 115 240.0 -24 160.0 0 0 1 0 1 0 -1 0 0 3003.DAT
0 STEP
1 115 30.0 -24 360.0 0 0 1 0 1 0 -1 0 0 3004.DAT
0 STEP
1 115 30.0 -24 160.0 0 0 1 0 1 0 -1 0 0 3004.DAT
0 STEP
1 115 240.0 -48 360.0 0 0 1 0 1 0 -1 0 0 3003.DAT
0 STEP
1 115 240.0 -48 160.0 0 0 1 0 1 0 -1 0 0 3003.DAT
0 STEP
1 115 30.0 -48 360.0 0 0 1 0 1 0 -1 0 0 3004.DAT
0 STEP
1 115 30.0 -48 160.0 0 0 1 0 1 0 -1 0 0 3004.DAT
0 STEP
1 115 240.0 -72 350.0 -1 0 0 0 1 0 0 0 -1 3004.DAT
0 STEP
1 115 240.0 -72 170.0 -1 0 0 0 1 0 0 0 -1 3004.DAT
0 STEP
1 115 240.0 -72 120.0 0 0 1 0 1 0 -1 0 0 3001.DAT
0 STEP
1 115 200.0 -72 120.0 0 0 1 0 1 0 -1 0 0 3001.DAT
0 STEP
1 115 160.0 -72 120.0 0 0 1 0 1 0 -1 0 0 3001.DAT
0 STEP
1 115 120.0 -72 120.0 0 0 1 0 1 0 -1 0 0 3001.DAT
0 STEP
1 115 80.0 -72 120.0 0 0 1 0 1 0 -1 0 0 3001.DAT
0 STEP
1 115 40.0 -72 120.0 0 0 1 0 1 0 -1 0 0 3001.DAT
0 STEP
1 115 240.0 -96 320.0 0 0 1 0 1 0 -1 0 0 3001.DAT
0 STEP
1 115 240.0 -96 140.0 0 0 1 0 1 0 -1 0 0 3001.DAT
0 STEP
1 115 200.0 -96 140.0 0 0 1 0 1 0 -1 0 0 3001.DAT
0 STEP
1 115 160.0 -96 140.0 0 0 1 0 1 0 -1 0 0 3001.DAT
0 STEP
