1 115 130.0 0 380.0 0 0 1 0 1 0 -1 0 0 3004.DAT
0 STEP
1 115 130.0 0 300.0 0 0 1 0 1 0 -1 0 0 3004.DAT
0 STEP
1 115 20.0 0 380.0 0 0 1 0 1 0 -1 0 0 3003.DAT
0 STEP
1 115 20.0 0 300.0 0 0 1 0 1 0 -1 0 0 3003.DAT
0 STEP
1 115 180.0 -24 340.0 -1 0 0 0 1 0 0 0 -1 3001.DAT
0 STEP
1 115 180.0 -24 300.0 -1 0 0 0 1 0 0 0 -1 3001.DAT
0 STEP
1 115 130.0 -24 380.0 0 0 1 0 1 0 -1 0 0 3004.DAT
0 STEP
1 115 130.0 -24 300.0 0 0 1 0 1 0 -1 0 0 3004.DAT
0 STEP
1 115 20.0 -24 380.0 0 0 1 0 1 0 -1 0 0 3003.DAT
0 STEP
1 115 20.0 -24 300.0 0 0 1 0 1 0 -1 0 0 3003.DAT
0 STEP
1 115 140.0 -48 340.0 0 0 1 0 1 0 -1 0 0 3003.DAT
0 STEP
1 115 130.0 -48 300.0 0 0 1 0 1 0 -1 0 0 3004.DAT
0 STEP
1 115 20.0 -48 340.0 0 0 1 0 1 0 -1 0 0 3003.DAT
0 STEP
1 115 20.0 -48 310.0 -1 0 0 0 1 0 0 0 -1 3004.DAT
0 STEP
1 115 140.0 -72 350.0 -1 0 0 0 1 0 0 0 -1 3004.DAT
0 STEP
1 115 130.0 -72 320.0 0 0 1 0 1 0 -1 0 0 3004.DAT
0 STEP
1 115 20.0 -72 340.0 0 0 1 0 1 0 -1 0 0 3001.DAT
0 STEP
1 115 140.0 -96 340.0 0 0 1 0 1 0 -1 0 0 3001.DAT
0 STEP
1 115 20.0 -96 340.0 0 0 1 0 1 0 -1 0 0 3001.DAT
0 STEP
1 115 140.0 -120 340.0 0 0 1 0 1 0 -1 0 0 3001.DAT
0 STEP
1 115 20.0 -120 340.0 0 0 1 0 1 0 -1 0 0 3001.DAT
0 STEP
1 115 140.0 -144 340.0 0 0 1 0 1 0 -1 0 0 3001.DAT
0 STEP
1 115 20.0 -144 340.0 0 0 1 0 1 0 -1 0 0 3001.DAT
0 STEP
1 115 140.0 -168 340.0 0 0 1 0 1 0 -1 0 0 3001.DAT
0 STEP
