1 115 170.0 0 360.0 0 0 1 0 1 0 -1 0 0 3004.DAT
0 STEP
1 115 170.0 0 240.0 0 0 1 0 1 0 -1 0 0 3004.DAT
0 STEP
1 115 140.0 0 360.0 0 0 1 0 1 0 -1 0 0 3003.DAT
0 STEP
1 115 140.0 0 240.0 0 0 1 0 1 0 -1 0 0 3003.DAT
0 STEP
1 115 50.0 0 360.0 0 0 1 0 1 0 -1 0 0 3004.DAT
0 STEP
1 115 50.0 0 240.0 0 0 1 0 1 0 -1 0 0 3004.DAT
0 STEP
1 115 20.0 0 360.0 0 0 1 0 1 0 -1 0 0 3003.DAT
0 STEP
1 115 20.0 0 240.0 0 0 1 0 1 0 -1 0 0 3003.DAT
0 STEP
1 115 160.0 -24 360.0 0 0 1 0 1 0 -1 0 0 3003.DAT
0 STEP
1 115 160.0 -24 240.0 0 0 1 0 1 0 -1 0 0 3003.DAT
0 STEP
1 115 130.0 -24 360.0 0 0 1 0 1 0 -1 0 0 3004.DAT
0 STEP
1 115 130.0 -24 240.0 0 0 1 0 1 0 -1 0 0 3004.DAT
0 STEP
1 115 40.0 -24 370.0 -1 0 0 0 1 0 0 0 -1 3004.DAT
0 STEP
1 115 40.0 -24 230.0 -1 0 0 0 1 0 0 0 -1 3004.DAT
0 STEP
1 115 160.0 -48 300.0 0 0 1 0 1 0 -1 0 0 3001.DAT
0 STEP
1 115 40.0 -48 300.0 0 0 1 0 1 0 -1 0 0 3001.DAT
0 STEP
1 115 160.0 -72 300.0 0 0 1 0 1 0 -1 0 0 3001.DAT
0 STEP
1 115 40.0 -72 300.0 0 0 1 0 1 0 -1 0 0 3001.DAT
0 STEP
1 115 160.0 -96 300.0 0 0 1 0 1 0 -1 0 0 3001.DAT
0 STEP
1 115 40.0 -96 300.0 0 0 1 0 1 0 -1 0 0 3001.DAT
0 STEP
1 115 160.0 -120 300.0 0 0 1 0 1 0 -1 0 0 3001.DAT
0 STEP
1 115 40.0 -120 300.0 0 0 1 0 1 0 -1 0 0 3001.DAT
0 STEP
1 115 160.0 -144 300.0 0 0 1 0 1 0 -1 0 0 3001.DAT
0 STEP
1 115 40.0 -144 300.0 0 0 1 0 1 0 -1 0 0 3001.DAT
0 STEP
