1 115 320.0 0 370.0 -1 0 0 0 1 0 0 0 -1 3004.DAT
0 STEP
1 115 320.0 0 340.0 0 0 1 0 1 0 -1 0 0 3003.DAT
0 STEP
1 115 310.0 0 300.0 0 0 1 0 1 0 -1 0 0 3004.DAT
0 STEP
1 115 290.0 0 380.0 0 0 1 0 1 0 -1 0 0 3004.DAT
0 STEP
1 115 290.0 0 280.0 0 0 1 0 1 0 -1 0 0 3004.DAT
0 STEP
1 115 50.0 0 380.0 0 0 1 0 1 0 -1 0 0 3004.DAT
0 STEP
1 115 50.0 0 280.0 0 0 1 0 1 0 -1 0 0 3004.DAT
0 STEP
1 115 20.0 0 370.0 -1 0 0 0 1 0 0 0 -1 3004.DAT
0 STEP
1 115 20.0 0 340.0 0 0 1 0 1 0 -1 0 0 3003.DAT
0 STEP
1 115 330.0 -24 340.0 0 0 1 0 1 0 -1 0 0 3004.DAT
0 STEP
1 115 300.0 -24 370.0 -1 0 0 0 1 0 0 0 -1 3004.DAT
0 STEP
1 115 300.0 -24 290.0 -1 0 0 0 1 0 0 0 -1 3004.DAT
0 STEP
1 115 40.0 -24 370.0 -1 0 0 0 1 0 0 0 -1 3004.DAT
0 STEP
1 115 40.0 -24 290.0 -1 0 0 0 1 0 0 0 -1 3004.DAT
0 STEP
1 115 10.0 -24 360.0 0 0 1 0 1 0 -1 0 0 3004.DAT
0 STEP
1 115 20.0 -24 330.0 -1 0 0 0 1 0 0 0 -1 3004.DAT
0 STEP
1 115 330.0 -48 340.0 0 0 1 0 1 0 -1 0 0 3004.DAT
0 STEP
1 115 310.0 -48 360.0 0 0 1 0 1 0 -1 0 0 3004.DAT
0 STEP
1 115 310.0 -48 300.0 0 0 1 0 1 0 -1 0 0 3004.DAT
0 STEP
1 115 290.0 -48 280.0 0 0 1 0 1 0 -1 0 0 3004.DAT
0 STEP
1 115 280.0 -48 380.0 0 0 1 0 1 0 -1 0 0 3003.DAT
0 STEP
1 115 70.0 -48 380.0 0 0 1 0 1 0 -1 0 0 3004.DAT
0 STEP
1 115 70.0 -48 280.0 0 0 1 0 1 0 -1 0 0 3004.DAT
0 STEP
1 115 50.0 -48 300.0 0 0 1 0 1 0 -1 0 0 3008.DAT
0 STEP
1 115 30.0 -48 300.0 0 0 1 0 1 0 -1 0 0 3008.DAT
0 STEP
1 115 10.0 -48 300.0 0 0 1 0 1 0 -1 0 0 3008.DAT
0 STEP
1 115 330.0 -72 260.0 0 0 1 0 1 0 -1 0 0 3008.DAT
0 STEP
1 115 320.0 -72 360.0 0 0 1 0 1 0 -1 0 0 3003.DAT
0 STEP
1 115 310.0 -72 260.0 0 0 1 0 1 0 -1 0 0 3008.DAT
0 STEP
1 115 290.0 -72 320.0 0 0 1 0 1 0 -1 0 0 3008.DAT
0 STEP
1 115 270.0 -72 320.0 0 0 1 0 1 0 -1 0 0 3008.DAT
0 STEP
1 115 280.0 -72 220.0 0 0 1 0 1 0 -1 0 0 3003.DAT
0 STEP
1 115 240.0 -72 360.0 0 0 1 0 1 0 -1 0 0 3001.DAT
0 STEP
1 115 240.0 -72 280.0 0 0 1 0 1 0 -1 0 0 3003.DAT
0 STEP
1 115 220.0 -72 220.0 -1 0 0 0 1 0 0 0 -1 3001.DAT
0 STEP
1 115 180.0 -72 250.0 -1 0 0 0 1 0 0 0 -1 3008.DAT
0 STEP
1 115 140.0 -72 390.0 -1 0 0 0 1 0 0 0 -1 3008.DAT
0 STEP
1 115 140.0 -72 370.0 -1 0 0 0 1 0 0 0 -1 3008.DAT
0 STEP
1 115 40.0 -72 380.0 0 0 1 0 1 0 -1 0 0 3003.DAT
0 STEP
1 115 40.0 -72 280.0 0 0 1 0 1 0 -1 0 0 3001.DAT
0 STEP
