1 115 390.0 0 380.0 0 0 1 0 1 0 -1 0 0 3004.DAT
0 STEP
1 115 390.0 0 80.0 0 0 1 0 1 0 -1 0 0 3004.DAT
0 STEP
1 115 370.0 0 300.0 0 0 1 0 1 0 -1 0 0 3008.DAT
0 STEP
1 115 370.0 0 140.0 0 0 1 0 1 0 -1 0 0 3008.DAT
0 STEP
1 115 340.0 -24 390.0 -1 0 0 0 1 0 0 0 -1 3004.DAT
0 STEP
1 115 340.0 -24 340.0 0 0 1 0 1 0 -1 0 0 3001.DAT
0 STEP
1 115 340.0 -24 290.0 -1 0 0 0 1 0 0 0 -1 3004.DAT
0 STEP
1 115 340.0 -24 260.0 0 0 1 0 1 0 -1 0 0 3003.DAT
0 STEP
1 115 340.0 -24 190.0 -1 0 0 0 1 0 0 0 -1 3004.DAT
0 STEP
1 115 340.0 -24 140.0 0 0 1 0 1 0 -1 0 0 3001.DAT
0 STEP
1 115 310.0 -24 380.0 0 0 1 0 1 0 -1 0 0 3004.DAT
0 STEP
1 115 310.0 -24 120.0 0 0 1 0 1 0 -1 0 0 3004.DAT
0 STEP
1 115 320.0 -24 80.0 0 0 1 0 1 0 -1 0 0 3003.DAT
0 STEP
1 115 300.0 -24 350.0 -1 0 0 0 1 0 0 0 -1 3004.DAT
0 STEP
1 115 300.0 -24 300.0 0 0 1 0 1 0 -1 0 0 3001.DAT
0 STEP
1 115 300.0 -24 220.0 0 0 1 0 1 0 -1 0 0 3001.DAT
0 STEP
1 115 280.0 -24 370.0 -1 0 0 0 1 0 0 0 -1 3004.DAT
0 STEP
1 115 280.0 -24 100.0 0 0 1 0 1 0 -1 0 0 3003.DAT
0 STEP
1 115 280.0 -24 70.0 -1 0 0 0 1 0 0 0 -1 3004.DAT
0 STEP
1 115 260.0 -24 350.0 -1 0 0 0 1 0 0 0 -1 3004.DAT
0 STEP
1 115 260.0 -24 320.0 0 0 1 0 1 0 -1 0 0 3003.DAT
0 STEP
1 115 260.0 -24 80.0 0 0 1 0 1 0 -1 0 0 3003.DAT
0 STEP
1 115 220.0 -24 340.0 0 0 1 0 1 0 -1 0 0 3003.DAT
0 STEP
1 115 220.0 -24 100.0 0 0 1 0 1 0 -1 0 0 3003.DAT
0 STEP
1 115 190.0 -24 340.0 0 0 1 0 1 0 -1 0 0 3004.DAT
0 STEP
1 115 190.0 -24 100.0 0 0 1 0 1 0 -1 0 0 3004.DAT
0 STEP
1 115 160.0 -24 350.0 -1 0 0 0 1 0 0 0 -1 3004.DAT
0 STEP
1 115 160.0 -24 320.0 0 0 1 0 1 0 -1 0 0 3003.DAT
0 STEP
1 115 160.0 -24 110.0 -1 0 0 0 1 0 0 0 -1 3004.DAT
0 STEP
1 115 160.0 -24 90.0 -1 0 0 0 1 0 0 0 -1 3004.DAT
0 STEP
1 115 130.0 -24 340.0 0 0 1 0 1 0 -1 0 0 3004.DAT
0 STEP
1 115 130.0 -24 100.0 0 0 1 0 1 0 -1 0 0 3004.DAT
0 STEP
1 115 110.0 -24 360.0 0 0 1 0 1 0 -1 0 0 3004.DAT
0 STEP
1 115 110.0 -24 100.0 0 0 1 0 1 0 -1 0 0 3004.DAT
0 STEP
1 115 80.0 -24 340.0 0 0 1 0 1 0 -1 0 0 3001.DAT
0 STEP
1 115 80.0 -24 100.0 0 0 1 0 1 0 -1 0 0 3001.DAT
0 STEP
1 115 50.0 -24 300.0 0 0 1 0 1 0 -1 0 0 3008.DAT
0 STEP
1 115 50.0 -24 140.0 0 0 1 0 1 0 -1 0 0 3008.DAT
0 STEP
1 115 20.0 -24 360.0 0 0 1 0 1 0 -1 0 0 3003.DAT
0 STEP
1 115 20.0 -24 320.0 0 0 1 0 1 0 -1 0 0 3003.DAT
0 STEP
