1 115 390.0 0 380.0 0 0 1 0 1 0 -1 0 0 3004.DAT
0 STEP
1 115 390.0 0 160.0 0 0 1 0 1 0 -1 0 0 3004.DAT
0 STEP
1 115 360.0 0 380.0 0 0 1 0 1 0 -1 0 0 3003.DAT
0 STEP
1 115 360.0 0 160.0 0 0 1 0 1 0 -1 0 0 3003.DAT
0 STEP
1 115 330.0 0 380.0 0 0 1 0 1 0 -1 0 0 3004.DAT
0 STEP
1 115 330.0 0 160.0 0 0 1 0 1 0 -1 0 0 3004.DAT
0 STEP
1 115 300.0 0 380.0 0 0 1 0 1 0 -1 0 0 3003.DAT
0 STEP
1 115 300.0 0 160.0 0 0 1 0 1 0 -1 0 0 3003.DAT
0 STEP
1 115 260.0 0 390.0 -1 0 0 0 1 0 0 0 -1 3004.DAT
0 STEP
1 115 260.0 0 170.0 -1 0 0 0 1 0 0 0 -1 3004.DAT
0 STEP
1 115 220.0 0 390.0 -1 0 0 0 1 0 0 0 -1 3004.DAT
0 STEP
1 115 220.0 0 170.0 -1 0 0 0 1 0 0 0 -1 3004.DAT
0 STEP
1 115 180.0 0 390.0 -1 0 0 0 1 0 0 0 -1 3004.DAT
0 STEP
1 115 180.0 0 170.0 -1 0 0 0 1 0 0 0 -1 3004.DAT
0 STEP
1 115 120.0 0 390.0 -1 0 0 0 1 0 0 0 -1 3004.DAT
0 STEP
1 115 120.0 0 170.0 -1 0 0 0 1 0 0 0 -1 3004.DAT
0 STEP
1 115 60.0 0 390.0 -1 0 0 0 1 0 0 0 -1 3004.DAT
0 STEP
1 115 60.0 0 170.0 -1 0 0 0 1 0 0 0 -1 3004.DAT
0 STEP
1 115 30.0 0 380.0 0 0 1 0 1 0 -1 0 0 3004.DAT
0 STEP
1 115 30.0 0 160.0 0 0 1 0 1 0 -1 0 0 3004.DAT
0 STEP
1 115 10.0 0 380.0 0 0 1 0 1 0 -1 0 0 3004.DAT
0 STEP
1 115 10.0 0 160.0 0 0 1 0 1 0 -1 0 0 3004.DAT
0 STEP
1 115 340.0 -24 390.0 -1 0 0 0 1 0 0 0 -1 3004.DAT
0 STEP
1 115 340.0 -24 360.0 0 0 1 0 1 0 -1 0 0 3003.DAT
0 STEP
1 115 340.0 -24 160.0 0 0 1 0 1 0 -1 0 0 3003.DAT
0 STEP
1 115 310.0 -24 380.0 0 0 1 0 1 0 -1 0 0 3004.DAT
0 STEP
1 115 310.0 -24 220.0 0 0 1 0 1 0 -1 0 0 3008.DAT
0 STEP
1 115 280.0 -24 380.0 0 0 1 0 1 0 -1 0 0 3003.DAT
0 STEP
1 115 280.0 -24 160.0 0 0 1 0 1 0 -1 0 0 3003.DAT
0 STEP
1 115 240.0 -24 380.0 0 0 1 0 1 0 -1 0 0 3003.DAT
0 STEP
1 115 240.0 -24 160.0 0 0 1 0 1 0 -1 0 0 3003.DAT
0 STEP
1 115 120.0 -24 380.0 0 0 1 0 1 0 -1 0 0 3003.DAT
0 STEP
1 115 120.0 -24 160.0 0 0 1 0 1 0 -1 0 0 3003.DAT
0 STEP
1 115 60.0 -24 380.0 0 0 1 0 1 0 -1 0 0 3003.DAT
0 STEP
1 115 60.0 -24 160.0 0 0 1 0 1 0 -1 0 0 3003.DAT
0 STEP
1 115 30.0 -24 300.0 0 0 1 0 1 0 -1 0 0 3008.DAT
0 STEP
1 115 10.0 -24 300.0 0 0 1 0 1 0 -1 0 0 3008.DAT
0 STEP
1 115 20.0 -24 160.0 0 0 1 0 1 0 -1 0 0 3003.DAT
0 STEP
1 115 310.0 -48 300.0 0 0 1 0 1 0 -1 0 0 3008.DAT
0 STEP
1 115 10.0 -48 300.0 0 0 1 0 1 0 -1 0 0 3008.DAT
0 STEP
