1 115 370.0 0 380.0 0 0 1 0 1 0 -1 0 0 3004.DAT
0 STEP
1 115 370.0 0 220.0 0 0 1 0 1 0 -1 0 0 3004.DAT
0 STEP
1 115 340.0 0 380.0 0 0 1 0 1 0 -1 0 0 3003.DAT
0 STEP
1 115 340.0 0 220.0 0 0 1 0 1 0 -1 0 0 3003.DAT
0 STEP
1 115 20.0 0 380.0 0 0 1 0 1 0 -1 0 0 3003.DAT
0 STEP
1 115 20.0 0 220.0 0 0 1 0 1 0 -1 0 0 3003.DAT
0 STEP
1 115 340.0 -24 380.0 0 0 1 0 1 0 -1 0 0 3003.DAT
0 STEP
1 115 340.0 -24 220.0 0 0 1 0 1 0 -1 0 0 3003.DAT
0 STEP
1 115 20.0 -24 380.0 0 0 1 0 1 0 -1 0 0 3003.DAT
0 STEP
1 115 20.0 -24 220.0 0 0 1 0 1 0 -1 0 0 3003.DAT
0 STEP
1 115 350.0 -48 380.0 0 0 1 0 1 0 -1 0 0 3004.DAT
0 STEP
1 115 350.0 -48 220.0 0 0 1 0 1 0 -1 0 0 3004.DAT
0 STEP
1 115 330.0 -48 300.0 0 0 1 0 1 0 -1 0 0 3008.DAT
0 STEP
1 115 260.0 -48 390.0 -1 0 0 0 1 0 0 0 -1 3008.DAT
0 STEP
1 115 260.0 -48 210.0 -1 0 0 0 1 0 0 0 -1 3008.DAT
0 STEP
1 115 30.0 -48 300.0 0 0 1 0 1 0 -1 0 0 3008.DAT
0 STEP
1 115 100.0 -48 390.0 -1 0 0 0 1 0 0 0 -1 3008.DAT
0 STEP
1 115 100.0 -48 210.0 -1 0 0 0 1 0 0 0 -1 3008.DAT
0 STEP
1 115 10.0 -48 380.0 0 0 1 0 1 0 -1 0 0 3004.DAT
0 STEP
1 115 10.0 -48 220.0 0 0 1 0 1 0 -1 0 0 3004.DAT
0 STEP
1 115 340.0 -72 380.0 0 0 1 0 1 0 -1 0 0 3003.DAT
0 STEP
1 115 330.0 -72 280.0 0 0 1 0 1 0 -1 0 0 3008.DAT
0 STEP
1 115 310.0 -72 220.0 0 0 1 0 1 0 -1 0 0 3004.DAT
0 STEP
1 115 280.0 -72 220.0 0 0 1 0 1 0 -1 0 0 3003.DAT
0 STEP
1 115 30.0 -72 280.0 0 0 1 0 1 0 -1 0 0 3008.DAT
0 STEP
1 115 20.0 -72 380.0 0 0 1 0 1 0 -1 0 0 3003.DAT
0 STEP
1 115 10.0 -72 220.0 0 0 1 0 1 0 -1 0 0 3004.DAT
0 STEP
1 115 350.0 -96 380.0 0 0 1 0 1 0 -1 0 0 3004.DAT
0 STEP
1 115 350.0 -96 220.0 0 0 1 0 1 0 -1 0 0 3004.DAT
0 STEP
1 115 320.0 -96 360.0 0 0 1 0 1 0 -1 0 0 3001.DAT
0 STEP
1 115 320.0 -96 310.0 -1 0 0 0 1 0 0 0 -1 3004.DAT
0 STEP
1 115 320.0 -96 280.0 0 0 1 0 1 0 -1 0 0 3003.DAT
0 STEP
1 115 280.0 -96 380.0 0 0 1 0 1 0 -1 0 0 3003.DAT
0 STEP
1 115 280.0 -96 350.0 -1 0 0 0 1 0 0 0 -1 3004.DAT
0 STEP
1 115 280.0 -96 300.0 0 0 1 0 1 0 -1 0 0 3001.DAT
0 STEP
1 115 240.0 -96 380.0 0 0 1 0 1 0 -1 0 0 3003.DAT
0 STEP
1 115 240.0 -96 350.0 -1 0 0 0 1 0 0 0 -1 3004.DAT
0 STEP
1 115 240.0 -96 300.0 0 0 1 0 1 0 -1 0 0 3001.DAT
0 STEP
1 115 210.0 -96 360.0 0 0 1 0 1 0 -1 0 0 3004.DAT
0 STEP
1 115 210.0 -96 280.0 0 0 1 0 1 0 -1 0 0 3004.DAT
0 STEP
