1 115 350.0 0 380.0 0 0 1 0 1 0 -1 0 0 3004.DAT
0 STEP
1 115 350.0 0 240.0 0 0 1 0 1 0 -1 0 0 3004.DAT
0 STEP
1 115 320.0 0 390.0 -1 0 0 0 1 0 0 0 -1 3004.DAT
0 STEP
1 115 320.0 0 360.0 0 0 1 0 1 0 -1 0 0 3003.DAT
0 STEP
1 115 320.0 0 240.0 0 0 1 0 1 0 -1 0 0 3003.DAT
0 STEP
1 115 210.0 0 380.0 0 0 1 0 1 0 -1 0 0 3004.DAT
0 STEP
1 115 210.0 0 240.0 0 0 1 0 1 0 -1 0 0 3004.DAT
0 STEP
1 115 180.0 0 380.0 0 0 1 0 1 0 -1 0 0 3003.DAT
0 STEP
1 115 180.0 0 240.0 0 0 1 0 1 0 -1 0 0 3003.DAT
0 STEP
1 115 50.0 0 380.0 0 0 1 0 1 0 -1 0 0 3004.DAT
0 STEP
1 115 50.0 0 240.0 0 0 1 0 1 0 -1 0 0 3004.DAT
0 STEP
1 115 20.0 0 390.0 -1 0 0 0 1 0 0 0 -1 3004.DAT
0 STEP
1 115 20.0 0 360.0 0 0 1 0 1 0 -1 0 0 3003.DAT
0 STEP
1 115 20.0 0 240.0 0 0 1 0 1 0 -1 0 0 3003.DAT
0 STEP
1 115 350.0 -24 380.0 0 0 1 0 1 0 -1 0 0 3004.DAT
0 STEP
1 115 350.0 -24 240.0 0 0 1 0 1 0 -1 0 0 3004.DAT
0 STEP
1 115 320.0 -24 390.0 -1 0 0 0 1 0 0 0 -1 3004.DAT
0 STEP
1 115 320.0 -24 360.0 0 0 1 0 1 0 -1 0 0 3003.DAT
0 STEP
1 115 320.0 -24 240.0 0 0 1 0 1 0 -1 0 0 3003.DAT
0 STEP
1 115 200.0 -24 380.0 0 0 1 0 1 0 -1 0 0 3003.DAT
0 STEP
1 115 200.0 -24 240.0 0 0 1 0 1 0 -1 0 0 3003.DAT
0 STEP
1 115 170.0 -24 380.0 0 0 1 0 1 0 -1 0 0 3004.DAT
0 STEP
1 115 170.0 -24 240.0 0 0 1 0 1 0 -1 0 0 3004.DAT
0 STEP
1 115 50.0 -24 380.0 0 0 1 0 1 0 -1 0 0 3004.DAT
0 STEP
1 115 50.0 -24 240.0 0 0 1 0 1 0 -1 0 0 3004.DAT
0 STEP
1 115 20.0 -24 390.0 -1 0 0 0 1 0 0 0 -1 3004.DAT
0 STEP
1 115 20.0 -24 360.0 0 0 1 0 1 0 -1 0 0 3003.DAT
0 STEP
1 115 20.0 -24 240.0 0 0 1 0 1 0 -1 0 0 3003.DAT
0 STEP
1 115 350.0 -48 380.0 0 0 1 0 1 0 -1 0 0 3004.DAT
0 STEP
1 115 350.0 -48 240.0 0 0 1 0 1 0 -1 0 0 3004.DAT
0 STEP
1 115 320.0 -48 380.0 0 0 1 0 1 0 -1 0 0 3003.DAT
0 STEP
1 115 320.0 -48 350.0 -1 0 0 0 1 0 0 0 -1 3004.DAT
0 STEP
1 115 320.0 -48 240.0 0 0 1 0 1 0 -1 0 0 3003.DAT
0 STEP
1 115 210.0 -48 380.0 0 0 1 0 1 0 -1 0 0 3004.DAT
0 STEP
1 115 210.0 -48 280.0 0 0 1 0 1 0 -1 0 0 3008.DAT
0 STEP
1 115 180.0 -48 380.0 0 0 1 0 1 0 -1 0 0 3003.DAT
0 STEP
1 115 180.0 -48 340.0 0 0 1 0 1 0 -1 0 0 3003.DAT
0 STEP
1 115 180.0 -48 260.0 0 0 1 0 1 0 -1 0 0 3003.DAT
0 STEP
1 115 140.0 -48 380.0 0 0 1 0 1 0 -1 0 0 3003.DAT
0 STEP
1 115 140.0 -48 260.0 0 0 1 0 1 0 -1 0 0 3003.DAT
0 STEP
