1 115 340.0 0 390.0 -1 0 0 0 1 0 0 0 -1 3004.DAT
0 STEP
1 115 340.0 0 360.0 0 0 1 0 1 0 -1 0 0 3003.DAT
0 STEP
1 115 340.0 0 310.0 -1 0 0 0 1 0 0 0 -1 3004.DAT
0 STEP
1 115 340.0 0 280.0 0 0 1 0 1 0 -1 0 0 3003.DAT
0 STEP
1 115 310.0 0 380.0 0 0 1 0 1 0 -1 0 0 3004.DAT
0 STEP
1 115 280.0 0 380.0 0 0 1 0 1 0 -1 0 0 3003.DAT
0 STEP
1 115 300.0 0 340.0 -1 0 0 0 1 0 0 0 -1 3001.DAT
0 STEP
1 115 300.0 0 300.0 -1 0 0 0 1 0 0 0 -1 3001.DAT
0 STEP
1 115 250.0 0 360.0 0 0 1 0 1 0 -1 0 0 3008.DAT
0 STEP
1 115 230.0 0 380.0 0 0 1 0 1 0 -1 0 0 3004.DAT
0 STEP
1 115 230.0 0 340.0 0 0 1 0 1 0 -1 0 0 3004.DAT
0 STEP
1 115 220.0 0 300.0 0 0 1 0 1 0 -1 0 0 3003.DAT
0 STEP
1 115 210.0 0 260.0 0 0 1 0 1 0 -1 0 0 3004.DAT
0 STEP
1 115 160.0 0 260.0 -1 0 0 0 1 0 0 0 -1 3001.DAT
0 STEP
1 115 110.0 0 380.0 0 0 1 0 1 0 -1 0 0 3004.DAT
0 STEP
1 115 110.0 0 340.0 0 0 1 0 1 0 -1 0 0 3004.DAT
0 STEP
1 115 110.0 0 300.0 0 0 1 0 1 0 -1 0 0 3004.DAT
0 STEP
1 115 110.0 0 240.0 0 0 1 0 1 0 -1 0 0 3004.DAT
0 STEP
1 115 90.0 0 300.0 0 0 1 0 1 0 -1 0 0 3004.DAT
0 STEP
1 115 100.0 0 200.0 0 0 1 0 1 0 -1 0 0 3003.DAT
0 STEP
1 115 70.0 0 200.0 0 0 1 0 1 0 -1 0 0 3004.DAT
0 STEP
1 115 60.0 0 300.0 0 0 1 0 1 0 -1 0 0 3003.DAT
0 STEP
1 115 120.0 0 270.0 -1 0 0 0 1 0 0 0 -1 3008.DAT
0 STEP
1 115 60.0 0 240.0 0 0 1 0 1 0 -1 0 0 3003.DAT
0 STEP
1 115 50.0 0 200.0 0 0 1 0 1 0 -1 0 0 3004.DAT
0 STEP
1 115 10.0 0 380.0 0 0 1 0 1 0 -1 0 0 3004.DAT
0 STEP
1 115 10.0 0 340.0 0 0 1 0 1 0 -1 0 0 3004.DAT
0 STEP
1 115 20.0 0 310.0 -1 0 0 0 1 0 0 0 -1 3004.DAT
0 STEP
1 115 20.0 0 280.0 0 0 1 0 1 0 -1 0 0 3003.DAT
0 STEP
1 115 20.0 0 240.0 0 0 1 0 1 0 -1 0 0 3003.DAT
0 STEP
1 115 20.0 0 200.0 0 0 1 0 1 0 -1 0 0 3003.DAT
0 STEP
1 115 350.0 -24 340.0 0 0 1 0 1 0 -1 0 0 3004.DAT
0 STEP
1 115 340.0 -24 310.0 -1 0 0 0 1 0 0 0 -1 3004.DAT
0 STEP
1 115 320.0 -24 340.0 0 0 1 0 1 0 -1 0 0 3003.DAT
0 STEP
1 115 310.0 -24 300.0 0 0 1 0 1 0 -1 0 0 3004.DAT
0 STEP
1 115 290.0 -24 360.0 0 0 1 0 1 0 -1 0 0 3004.DAT
0 STEP
1 115 290.0 -24 260.0 0 0 1 0 1 0 -1 0 0 3008.DAT
0 STEP
1 115 270.0 -24 260.0 0 0 1 0 1 0 -1 0 0 3008.DAT
0 STEP
1 115 260.0 -24 360.0 0 0 1 0 1 0 -1 0 0 3003.DAT
0 STEP
1 115 250.0 -24 260.0 0 0 1 0 1 0 -1 0 0 3008.DAT
0 STEP
