1 115 390.0 0 380.0 0 0 1 0 1 0 -1 0 0 3004.DAT
0 STEP
1 115 390.0 0 80.0 0 0 1 0 1 0 -1 0 0 3004.DAT
0 STEP
1 115 10.0 0 380.0 0 0 1 0 1 0 -1 0 0 3004.DAT
0 STEP
1 115 10.0 0 80.0 0 0 1 0 1 0 -1 0 0 3004.DAT
0 STEP
1 115 380.0 -24 390.0 -1 0 0 0 1 0 0 0 -1 3004.DAT
0 STEP
1 115 350.0 -24 380.0 0 0 1 0 1 0 -1 0 0 3004.DAT
0 STEP
1 115 360.0 -24 80.0 0 0 1 0 1 0 -1 0 0 3003.DAT
0 STEP
1 115 20.0 -24 380.0 0 0 1 0 1 0 -1 0 0 3003.DAT
0 STEP
1 115 20.0 -24 80.0 0 0 1 0 1 0 -1 0 0 3003.DAT
0 STEP
1 115 350.0 -48 380.0 0 0 1 0 1 0 -1 0 0 3004.DAT
0 STEP
1 115 350.0 -48 80.0 0 0 1 0 1 0 -1 0 0 3004.DAT
0 STEP
1 115 20.0 -48 380.0 0 0 1 0 1 0 -1 0 0 3003.DAT
0 STEP
1 115 20.0 -48 80.0 0 0 1 0 1 0 -1 0 0 3003.DAT
0 STEP
1 115 350.0 -72 360.0 0 0 1 0 1 0 -1 0 0 3004.DAT
0 STEP
1 115 350.0 -72 80.0 0 0 1 0 1 0 -1 0 0 3004.DAT
0 STEP
1 115 20.0 -72 360.0 0 0 1 0 1 0 -1 0 0 3003.DAT
0 STEP
1 115 20.0 -72 80.0 0 0 1 0 1 0 -1 0 0 3003.DAT
0 STEP
1 115 350.0 -96 360.0 0 0 1 0 1 0 -1 0 0 3004.DAT
0 STEP
1 115 350.0 -96 80.0 0 0 1 0 1 0 -1 0 0 3004.DAT
0 STEP
1 115 20.0 -96 360.0 0 0 1 0 1 0 -1 0 0 3003.DAT
0 STEP
1 115 20.0 -96 80.0 0 0 1 0 1 0 -1 0 0 3003.DAT
0 STEP
1 115 350.0 -120 360.0 0 0 1 0 1 0 -1 0 0 3004.DAT
0 STEP
1 115 350.0 -120 80.0 0 0 1 0 1 0 -1 0 0 3004.DAT
0 STEP
1 115 20.0 -120 360.0 0 0 1 0 1 0 -1 0 0 3003.DAT
0 STEP
1 115 20.0 -120 80.0 0 0 1 0 1 0 -1 0 0 3003.DAT
0 STEP
1 115 350.0 -144 360.0 0 0 1 0 1 0 -1 0 0 3004.DAT
0 STEP
1 115 350.0 -144 80.0 0 0 1 0 1 0 -1 0 0 3004.DAT
0 STEP
1 115 20.0 -144 360.0 0 0 1 0 1 0 -1 0 0 3003.DAT
0 STEP
1 115 20.0 -144 80.0 0 0 1 0 1 0 -1 0 0 3003.DAT
0 STEP
1 115 350.0 -168 360.0 0 0 1 0 1 0 -1 0 0 3004.DAT
0 STEP
1 115 350.0 -168 80.0 0 0 1 0 1 0 -1 0 0 3004.DAT
0 STEP
1 115 20.0 -168 360.0 0 0 1 0 1 0 -1 0 0 3003.DAT
0 STEP
1 115 20.0 -168 80.0 0 0 1 0 1 0 -1 0 0 3003.DAT
0 STEP
1 115 350.0 -192 360.0 0 0 1 0 1 0 -1 0 0 3004.DAT
0 STEP
1 115 350.0 -192 80.0 0 0 1 0 1 0 -1 0 0 3004.DAT
0 STEP
1 115 20.0 -192 360.0 0 0 1 0 1 0 -1 0 0 3003.DAT
0 STEP
1 115 20.0 -192 80.0 0 0 1 0 1 0 -1 0 0 3003.DAT
0 STEP
1 115 350.0 -216 280.0 0 0 1 0 1 0 -1 0 0 3008.DAT
0 STEP
1 115 350.0 -216 120.0 0 0 1 0 1 0 -1 0 0 3008.DAT
0 STEP
1 115 320.0 -216 300.0 0 0 1 0 1 0 -1 0 0 3001.DAT
0 STEP
