1 115 340.0 0 390.0 -1 0 0 0 1 0 0 0 -1 3004.DAT
0 STEP
1 115 340.0 0 360.0 0 0 1 0 1 0 -1 0 0 3003.DAT
0 STEP
1 115 340.0 0 260.0 0 0 1 0 1 0 -1 0 0 3003.DAT
0 STEP
1 115 20.0 0 390.0 -1 0 0 0 1 0 0 0 -1 3004.DAT
0 STEP
1 115 20.0 0 360.0 0 0 1 0 1 0 -1 0 0 3003.DAT
0 STEP
1 115 20.0 0 260.0 0 0 1 0 1 0 -1 0 0 3003.DAT
0 STEP
1 115 340.0 -24 380.0 0 0 1 0 1 0 -1 0 0 3003.DAT
0 STEP
1 115 340.0 -24 350.0 -1 0 0 0 1 0 0 0 -1 3004.DAT
0 STEP
1 115 340.0 -24 260.0 0 0 1 0 1 0 -1 0 0 3003.DAT
0 STEP
1 115 20.0 -24 380.0 0 0 1 0 1 0 -1 0 0 3003.DAT
0 STEP
1 115 20.0 -24 350.0 -1 0 0 0 1 0 0 0 -1 3004.DAT
0 STEP
1 115 20.0 -24 260.0 0 0 1 0 1 0 -1 0 0 3003.DAT
0 STEP
1 115 340.0 -48 390.0 -1 0 0 0 1 0 0 0 -1 3004.DAT
0 STEP
1 115 340.0 -48 360.0 0 0 1 0 1 0 -1 0 0 3003.DAT
0 STEP
1 115 340.0 -48 260.0 0 0 1 0 1 0 -1 0 0 3003.DAT
0 STEP
1 115 20.0 -48 390.0 -1 0 0 0 1 0 0 0 -1 3004.DAT
0 STEP
1 115 20.0 -48 360.0 0 0 1 0 1 0 -1 0 0 3003.DAT
0 STEP
1 115 20.0 -48 260.0 0 0 1 0 1 0 -1 0 0 3003.DAT
0 STEP
1 115 340.0 -72 380.0 0 0 1 0 1 0 -1 0 0 3003.DAT
0 STEP
1 115 340.0 -72 350.0 -1 0 0 0 1 0 0 0 -1 3004.DAT
0 STEP
1 115 340.0 -72 260.0 0 0 1 0 1 0 -1 0 0 3003.DAT
0 STEP
1 115 20.0 -72 380.0 0 0 1 0 1 0 -1 0 0 3003.DAT
0 STEP
1 115 20.0 -72 350.0 -1 0 0 0 1 0 0 0 -1 3004.DAT
0 STEP
1 115 20.0 -72 260.0 0 0 1 0 1 0 -1 0 0 3003.DAT
0 STEP
1 115 340.0 -96 390.0 -1 0 0 0 1 0 0 0 -1 3004.DAT
0 STEP
1 115 340.0 -96 360.0 0 0 1 0 1 0 -1 0 0 3003.DAT
0 STEP
1 115 340.0 -96 260.0 0 0 1 0 1 0 -1 0 0 3003.DAT
0 STEP
1 115 20.0 -96 390.0 -1 0 0 0 1 0 0 0 -1 3004.DAT
0 STEP
1 115 20.0 -96 360.0 0 0 1 0 1 0 -1 0 0 3003.DAT
0 STEP
1 115 20.0 -96 260.0 0 0 1 0 1 0 -1 0 0 3003.DAT
0 STEP
1 115 350.0 -120 380.0 0 0 1 0 1 0 -1 0 0 3004.DAT
0 STEP
1 115 350.0 -120 280.0 0 0 1 0 1 0 -1 0 0 3008.DAT
0 STEP
1 115 320.0 -120 360.0 0 0 1 0 1 0 -1 0 0 3001.DAT
0 STEP
1 115 320.0 -120 260.0 0 0 1 0 1 0 -1 0 0 3001.DAT
0 STEP
1 115 320.0 -120 210.0 -1 0 0 0 1 0 0 0 -1 3004.DAT
0 STEP
1 115 260.0 -120 380.0 -1 0 0 0 1 0 0 0 -1 3001.DAT
0 STEP
1 115 260.0 -120 340.0 -1 0 0 0 1 0 0 0 -1 3001.DAT
0 STEP
1 115 260.0 -120 280.0 -1 0 0 0 1 0 0 0 -1 3001.DAT
0 STEP
1 115 260.0 -120 240.0 -1 0 0 0 1 0 0 0 -1 3001.DAT
0 STEP
1 115 180.0 -120 380.0 -1 0 0 0 1 0 0 0 -1 3001.DAT
0 STEP
